<?xml version="1.0" standalone="no"?>
<!DOCTYPE svg PUBLIC "-//W3C//DTD SVG 20010904//EN"
 "http://www.w3.org/TR/2001/REC-SVG-20010904/DTD/svg10.dtd">
<svg version="1.0" xmlns="http://www.w3.org/2000/svg"
 width="552.000000pt" height="368.000000pt" viewBox="0 0 552.000000 368.000000"
 preserveAspectRatio="xMidYMid meet">

<g transform="translate(0.000000,368.000000) scale(0.100000,-0.100000)"
fill="#000000" stroke="none">
<path d="M0 1840 l0 -1840 2034 0 2034 0 7 37 c3 21 15 54 25 73 22 40 27 33
6 -8 -7 -15 -16 -44 -20 -64 l-7 -37 721 -1 720 0 0 1840 0 1840 -2760 0
-2760 0 0 -1840z m4865 1660 c-3 -5 -12 -10 -18 -10 -7 0 -6 4 3 10 19 12 23
12 15 0z m-596 -55 c0 -5 -4 -3 -9 5 -5 8 -9 22 -9 30 0 16 17 -16 18 -35z
m-139 -10 c0 -2 -7 -8 -15 -15 -12 -10 -15 -10 -15 2 0 8 7 15 15 15 8 0 15
-1 15 -2z m50 -15 c-6 -11 -13 -20 -16 -20 -2 0 0 9 6 20 6 11 13 20 16 20 2
0 0 -9 -6 -20z m648 -7 c-2 -9 -9 -18 -16 -19 -7 -1 -8 0 -3 2 6 3 7 12 4 20
-3 8 0 14 7 14 6 0 10 -8 8 -17z m-28 -37 c0 -3 -4 -8 -10 -11 -5 -3 -10 -1
-10 4 0 6 5 11 10 11 6 0 10 -2 10 -4z m-30 -80 c0 -3 -4 -8 -10 -11 -5 -3
-10 -1 -10 4 0 6 5 11 10 11 6 0 10 -2 10 -4z m40 -6 c0 -5 -7 -10 -16 -10 -8
0 -12 5 -9 10 3 6 10 10 16 10 5 0 9 -4 9 -10z m-170 -115 c0 -8 -2 -15 -4
-15 -2 0 -6 7 -10 15 -3 8 -1 15 4 15 6 0 10 -7 10 -15z m126 -68 c21 8 17 -6
-8 -27 -29 -23 -40 -16 -26 16 7 15 14 22 16 16 2 -6 10 -8 18 -5z m-171 -27
c-10 -11 -20 -18 -23 -16 -5 6 21 35 32 36 5 0 1 -9 -9 -20z m120 -30 c3 -4
-2 -10 -10 -14 -8 -3 -15 -12 -15 -20 0 -8 -4 -17 -9 -20 -14 -9 -41 4 -41 20
0 8 6 11 15 8 17 -7 18 -3 9 21 -5 13 -9 14 -15 3 -7 -11 -11 -10 -19 2 -8 13
-10 12 -10 -2 0 -11 -8 -18 -20 -18 -11 0 -20 5 -20 11 0 5 4 8 9 4 5 -3 13 0
16 6 17 27 93 26 110 -1z m-195 10 c0 -5 -2 -10 -4 -10 -3 0 -8 5 -11 10 -3 6
-1 10 4 10 6 0 11 -4 11 -10z m102 -84 c7 4 8 2 4 -5 -10 -15 -26 -4 -25 17 1
15 2 15 6 -1 2 -9 9 -14 15 -11z m72 -71 c3 -8 1 -15 -4 -15 -6 0 -10 7 -10
15 0 8 2 15 4 15 2 0 6 -7 10 -15z m-19 -25 c3 -5 15 -10 26 -10 10 0 19 -4
19 -9 0 -5 -11 -8 -25 -7 -14 0 -25 6 -25 13 0 6 -6 14 -12 16 -10 4 -10 6 -1
6 6 1 15 -3 18 -9z m-505 -6 c0 -8 -19 -13 -24 -6 -3 5 1 9 9 9 8 0 15 -2 15
-3z m-100 -29 c0 -12 -19 -12 -23 0 -4 9 -1 12 9 8 7 -3 14 -7 14 -8z m583 -5
c3 -11 1 -18 -4 -14 -5 3 -9 12 -9 20 0 20 7 17 13 -6z m-65 -8 c12 11 16 11
20 0 9 -29 52 -56 52 -33 0 11 26 8 37 -4 5 -4 2 -5 -6 0 -11 6 -13 4 -8 -8 4
-11 -3 -28 -21 -48 -26 -29 -29 -30 -42 -13 -14 16 -13 17 7 12 15 -4 24 0 28
11 9 22 8 24 -10 27 -12 2 -15 -3 -10 -14 5 -14 4 -14 -13 1 -23 21 -36 22
-29 3 3 -8 1 -17 -6 -19 -7 -2 -2 -12 13 -26 21 -17 22 -20 5 -14 -18 6 -18 5
-7 -10 12 -14 11 -15 -17 -7 -19 5 -31 5 -31 -1 0 -5 -7 -9 -16 -9 -8 0 -12 5
-9 10 3 6 1 10 -4 10 -6 0 -11 -4 -11 -9 0 -11 -49 -21 -55 -10 -3 4 4 14 15
22 23 16 17 27 -11 20 -10 -3 -19 -12 -19 -20 0 -9 -6 -13 -14 -10 -7 3 -19 0
-26 -6 -10 -9 -12 -8 -7 6 7 19 6 20 -17 11 -9 -3 -16 -12 -16 -20 0 -8 -5
-14 -11 -14 -5 0 -8 4 -4 9 3 5 1 12 -3 15 -5 3 -19 -8 -31 -25 -13 -18 -29
-28 -37 -25 -8 3 -14 1 -14 -4 0 -6 -5 -10 -11 -10 -8 0 -8 4 0 14 6 8 11 18
10 22 -5 30 2 56 15 51 8 -3 17 2 21 11 6 15 8 14 15 -5 7 -16 14 -20 32 -16
13 3 28 10 35 15 7 5 14 5 18 -1 4 -7 17 -6 40 3 19 8 44 12 56 9 19 -5 21 -3
15 13 -5 10 -10 28 -12 39 -4 16 -3 16 5 -2 6 -13 18 -23 28 -23 15 0 16 2 3
10 -13 9 -13 11 0 20 10 6 11 10 3 10 -7 0 -13 9 -13 20 0 17 3 18 26 10 19
-8 31 -7 42 2z m-1257 -37 c118 -31 168 -31 244 0 33 14 67 25 77 25 17 0 67
-53 69 -73 1 -23 7 -63 23 -156 8 -52 14 -97 13 -100 -1 -3 4 -21 12 -39 10
-25 11 -36 2 -45 -6 -6 -11 -18 -10 -26 0 -14 1 -14 7 0 5 12 13 14 27 8 17
-6 17 -8 2 -8 -23 -1 -17 -24 8 -32 11 -4 -14 -6 -55 -6 -41 -1 -98 -4 -126
-8 -80 -11 -183 23 -266 88 -36 29 -106 84 -156 122 -50 39 -91 76 -91 83 -1
7 -6 10 -11 7 -6 -4 -26 7 -46 24 -19 17 -39 31 -44 31 -19 0 -10 30 18 61 30
34 116 68 173 69 19 0 78 -11 130 -25z m876 11 c-2 -6 -11 -12 -20 -14 -11 -2
-15 1 -12 11 7 16 37 19 32 3z m110 -8 c-3 -8 -6 -5 -6 6 -1 11 2 17 5 13 3
-3 4 -12 1 -19z m-17 -8 c0 -5 -2 -10 -4 -10 -3 0 -8 5 -11 10 -3 6 -1 10 4
10 6 0 11 -4 11 -10z m-185 -10 c3 -5 1 -10 -4 -10 -6 0 -11 5 -11 10 0 6 2
10 4 10 3 0 8 -4 11 -10z m220 -10 c3 -5 1 -10 -4 -10 -6 0 -11 5 -11 10 0 6
2 10 4 10 3 0 8 -4 11 -10z m-245 -20 c0 -4 -11 -7 -25 -7 -20 0 -23 2 -14 13
10 13 39 9 39 -6z m94 4 c3 -8 2 -12 -4 -9 -6 3 -10 10 -10 16 0 14 7 11 14
-7z m187 -7 c-10 -9 -11 -8 -5 6 3 10 9 15 12 12 3 -3 0 -11 -7 -18z m59 -8
c0 -6 -7 -6 -20 1 -11 6 -20 15 -20 21 0 6 7 6 20 -1 11 -6 20 -15 20 -21z
m-310 17 c0 -3 -4 -8 -10 -11 -5 -3 -10 -1 -10 4 0 6 5 11 10 11 6 0 10 -2 10
-4z m-43 -33 c-4 -3 -2 -12 4 -19 6 -8 8 -22 4 -31 -6 -15 -9 -13 -16 11 -8
28 -5 46 8 46 4 0 3 -3 0 -7z m113 -3 c0 -5 -8 -10 -17 -10 -15 0 -16 2 -3 10
19 12 20 12 20 0z m-10 -24 c0 -3 -4 -8 -10 -11 -5 -3 -10 -1 -10 4 0 6 5 11
10 11 6 0 10 -2 10 -4z m10 -47 c0 -14 -17 -10 -23 5 -4 10 -1 13 9 9 7 -3 14
-9 14 -14z m187 5 c-3 -3 -12 -4 -19 -1 -8 3 -5 6 6 6 11 1 17 -2 13 -5z m-20
-27 c11 4 14 2 9 -5 -11 -18 -36 -14 -35 6 0 9 3 12 5 5 3 -7 12 -9 21 -6z
m94 -30 c-10 -9 -11 -8 -5 6 3 10 9 15 12 12 3 -3 0 -11 -7 -18z m-3931 -421
c0 -3 -4 -8 -10 -11 -5 -3 -10 -1 -10 4 0 6 5 11 10 11 6 0 10 -2 10 -4z m50
-12 c0 -8 -19 -13 -24 -6 -3 5 1 9 9 9 8 0 15 -2 15 -3z m17 -46 c1 -10 -2
-20 -8 -23 -5 -4 -9 2 -9 13 0 10 -7 19 -15 19 -10 0 -12 -4 -5 -12 6 -7 3
-11 -9 -11 -13 0 -17 6 -14 21 4 20 4 20 -11 1 -9 -11 -16 -17 -16 -14 0 4 -3
14 -7 24 -4 11 -3 15 5 10 6 -3 13 -2 16 2 9 16 72 -10 73 -30z m260 -4 c-3
-3 -12 -4 -19 -1 -8 3 -5 6 6 6 11 1 17 -2 13 -5z m-309 -50 c-18 -17 -25 -18
-31 -7 -12 19 -2 29 28 29 l25 0 -22 -22z m427 -44 c3 -5 1 -10 -4 -10 -6 0
-11 5 -11 10 0 6 2 10 4 10 3 0 8 -4 11 -10z m-24 -30 c6 0 7 -4 4 -10 -3 -5
0 -10 7 -11 9 0 9 -2 -2 -6 -19 -8 -40 -29 -40 -41 0 -5 7 -15 15 -22 10 -9
15 -9 15 -1 0 6 4 11 8 11 4 0 8 -9 8 -20 0 -11 -6 -20 -13 -20 -6 0 -15 -4
-18 -10 -4 -6 1 -7 12 -4 15 5 15 4 3 -5 -21 -14 -51 17 -38 42 11 22 -5 23
-26 1 -14 -13 -16 -13 -16 0 0 8 10 18 21 21 17 6 19 9 8 16 -12 7 -11 9 1 9
13 0 13 1 0 11 -12 8 -10 9 8 4 20 -6 23 -4 22 17 -3 35 1 57 7 36 2 -10 9
-18 14 -18z m-501 -14 c0 -3 -4 -8 -10 -11 -5 -3 -10 -1 -10 4 0 6 5 11 10 11
6 0 10 -2 10 -4z m135 -28 c0 -17 -5 -33 -10 -35 -9 -3 -11 15 -6 60 1 4 4 7
9 7 4 0 7 -14 7 -32z m105 12 c0 -5 -5 -10 -11 -10 -5 0 -7 5 -4 10 3 6 8 10
11 10 2 0 4 -4 4 -10z m149 -21 c-22 -13 -31 -11 -17 5 7 8 17 12 22 9 4 -3 2
-9 -5 -14z m-295 3 c2 -4 -4 -8 -14 -8 -10 0 -16 4 -14 8 3 4 9 8 14 8 5 0 11
-4 14 -8z m170 -10 c2 -4 -4 -8 -14 -8 -10 0 -16 4 -14 8 3 4 9 8 14 8 5 0 11
-4 14 -8z m-209 -31 c-3 -3 -10 1 -15 9 -8 13 -10 13 -10 -1 0 -9 -7 -19 -15
-23 -19 -7 -15 15 5 31 11 8 19 8 28 1 7 -6 10 -13 7 -17z m305 9 c0 -5 -5
-10 -11 -10 -5 0 -7 5 -4 10 3 6 8 10 11 10 2 0 4 -4 4 -10z m210 -4 c0 -2 -7
-6 -15 -10 -8 -3 -15 -1 -15 4 0 6 7 10 15 10 8 0 15 -2 15 -4z m-585 -15 c3
-5 -7 -8 -22 -7 -15 2 -38 -3 -50 -12 -15 -9 -23 -10 -23 -3 0 6 7 11 15 11 8
0 15 5 15 10 0 13 57 13 65 1z m379 -7 c9 -3 16 -14 16 -23 -1 -14 -2 -14 -14
2 -7 9 -23 17 -35 17 -19 0 -25 -13 -20 -47 1 -10 -30 -25 -41 -18 -6 3 -10
-1 -10 -9 0 -9 4 -16 10 -16 5 0 6 -8 3 -17 -5 -12 -2 -15 10 -10 19 7 20 6
11 -17 -3 -9 -10 -16 -16 -16 -5 0 -7 4 -3 9 3 5 1 12 -5 16 -6 3 -10 -4 -11
-17 0 -22 -1 -22 -9 -3 -4 11 -4 24 1 30 12 12 11 25 0 25 -5 0 -13 -9 -16
-20 -4 -11 -11 -18 -16 -15 -5 4 -12 -2 -16 -11 -6 -16 -7 -16 -13 2 -5 14 -2
20 13 24 11 3 31 27 45 53 14 26 30 47 35 47 5 0 4 -7 -3 -15 -10 -12 -10 -19
-2 -27 9 -9 12 -9 12 -1 0 49 32 73 74 57z m186 -13 c0 -5 -7 -12 -16 -15 -14
-5 -15 -4 -4 9 14 17 20 19 20 6z m-195 -43 c-3 -8 -12 -15 -20 -15 -12 0 -11
4 3 17 20 20 25 19 17 -2z m-120 -8 c3 -5 1 -10 -4 -10 -6 0 -11 5 -11 10 0 6
2 10 4 10 3 0 8 -4 11 -10z m160 -1 c4 -6 14 -8 22 -5 8 3 11 1 8 -4 -3 -6
-11 -10 -16 -10 -14 0 -39 -26 -39 -40 0 -7 6 -5 16 4 8 9 17 16 19 16 7 0 -7
-30 -14 -31 -45 -6 -49 -5 -43 10 3 9 11 19 18 24 7 4 11 16 9 27 -4 21 9 27
20 9z m-230 -9 c3 -5 1 -10 -4 -10 -6 0 -11 5 -11 10 0 6 2 10 4 10 3 0 8 -4
11 -10z m-92 -30 c6 -23 -3 -26 -22 -7 -10 8 -12 8 -7 0 11 -20 -13 -25 -36
-8 l-23 17 23 -7 c16 -5 22 -3 20 7 -2 8 4 12 16 10 12 -2 16 1 10 9 -4 7 -3
10 3 6 6 -4 13 -16 16 -27z m47 16 c0 -2 -7 -6 -15 -10 -8 -3 -15 -1 -15 4 0
6 7 10 15 10 8 0 15 -2 15 -4z m37 -38 c-3 -7 -5 -2 -5 12 0 14 2 19 5 13 2
-7 2 -19 0 -25z m288 12 c-3 -5 -10 -10 -16 -10 -5 0 -9 5 -9 10 0 6 7 10 16
10 8 0 12 -4 9 -10z m-415 -30 c18 -12 2 -12 -25 0 -13 6 -15 9 -5 9 8 0 22
-4 30 -9z m35 -10 c3 -5 1 -10 -4 -10 -6 0 -11 5 -11 10 0 6 2 10 4 10 3 0 8
-4 11 -10z m259 -27 c-10 -7 -29 -12 -43 -12 -24 1 -24 2 4 8 20 5 30 12 29
24 -2 15 1 16 13 5 13 -10 13 -14 -3 -25z m-230 12 c-4 -8 -10 -15 -15 -15 -4
0 -6 7 -3 15 4 8 10 15 15 15 4 0 6 -7 3 -15z m109 -12 c-7 -17 -21 -16 -38 1
-11 11 -9 13 14 12 18 -1 27 -5 24 -13z m-43 -13 c0 -5 -5 -10 -11 -10 -5 0
-7 5 -4 10 3 6 8 10 11 10 2 0 4 -4 4 -10z m70 -10 c0 -5 -7 -10 -15 -10 -8 0
-15 -5 -15 -11 0 -5 -5 -7 -11 -3 -8 4 -3 12 12 20 29 16 29 16 29 4z m2708
-208 c6 -18 -15 -14 -22 4 -4 10 -1 14 6 12 6 -2 14 -10 16 -16z m-31 -58 c8
-21 -8 -36 -27 -24 -12 8 -12 10 -1 10 7 0 11 6 7 15 -3 8 -1 15 5 15 5 0 12
-7 16 -16z m-1141 -266 c-3 -13 -6 -31 -6 -40 0 -10 -5 -18 -10 -18 -17 0 -22
24 -11 53 13 33 36 37 27 5z m84 2 c0 -5 -2 -10 -4 -10 -3 0 -8 5 -11 10 -3 6
-1 10 4 10 6 0 11 -4 11 -10z m68 -27 c5 -18 -26 -16 -45 3 -15 14 -14 15 12
12 16 -2 30 -9 33 -15z m10 -28 c8 3 18 2 21 -3 8 -13 334 -78 451 -91 52 -6
127 -8 166 -4 67 5 73 4 84 -16 10 -19 9 -26 -6 -42 -22 -24 -26 -24 -55 5
-29 28 -107 44 -115 22 -3 -7 2 -39 11 -71 17 -56 17 -57 -5 -77 -11 -11 -51
-30 -89 -42 -37 -12 -85 -36 -107 -54 -24 -19 -59 -35 -87 -41 -26 -4 -53 -13
-61 -20 -11 -9 -19 1 -41 51 -40 90 -67 121 -144 167 -127 77 -165 73 -198
-19 -10 -27 -22 -50 -26 -50 -5 0 -6 8 -2 18 4 9 12 35 17 57 23 98 64 195 91
217 19 15 24 15 50 1 16 -8 36 -12 45 -8z m872 -52 c0 -4 -17 -22 -37 -39 -36
-32 -38 -32 -51 -13 -17 24 -16 25 34 43 46 17 54 18 54 9z m300 -467 c0 -3
-4 -8 -10 -11 -5 -3 -10 -1 -10 4 0 6 5 11 10 11 6 0 10 -2 10 -4z m347 -10
c-3 -7 0 -19 6 -25 6 -6 8 -11 5 -11 -4 0 -14 7 -23 16 -13 14 -14 19 -3 25
18 12 21 11 15 -5z m-170 -3 c-4 -3 -2 -11 3 -18 7 -8 3 -19 -11 -33 -22 -25
-34 -27 -45 -10 -4 7 -3 8 4 4 16 -10 15 7 0 23 -11 11 -9 11 9 2 27 -14 33
-14 33 -1 0 6 -8 10 -17 10 -16 1 -16 2 1 15 20 15 35 21 23 8z m141 -38 c-3
-3 -9 2 -12 12 -6 14 -5 15 5 6 7 -7 10 -15 7 -18z m-581 -51 c-3 -3 -12 -4
-19 -1 -8 3 -5 6 6 6 11 1 17 -2 13 -5z m550 -79 c0 -18 -19 -15 -25 3 -2 7 3
12 11 12 7 0 14 -7 14 -15z m-663 -11 c4 -9 4 -19 2 -21 -8 -8 -26 8 -26 23 0
19 16 18 24 -2z m-31 -28 c4 -10 0 -12 -14 -9 -22 6 -26 23 -5 23 8 0 16 -6
19 -14z m107 10 c0 -3 -4 -8 -10 -11 -5 -3 -10 -1 -10 4 0 6 5 11 10 11 6 0
10 -2 10 -4z m530 -5 c0 -5 -7 -12 -16 -15 -8 -3 -12 -10 -9 -16 3 -5 -1 -10
-9 -10 -9 0 -16 2 -16 4 0 2 -3 12 -7 22 -5 13 -3 16 10 11 9 -3 19 -2 22 3 8
13 25 13 25 1z m-543 -47 c-3 -3 -12 -4 -19 -1 -8 3 -5 6 6 6 11 1 17 -2 13
-5z m513 -13 c0 -5 -9 -11 -21 -14 -16 -4 -18 -3 -8 9 13 16 29 19 29 5z
m-237 -31 c-6 -24 -16 -25 -37 -4 -21 21 -20 27 4 19 12 -4 20 -2 20 5 0 6 4
9 9 6 5 -3 7 -15 4 -26z m60 15 c-3 -9 -8 -14 -10 -11 -3 3 -2 9 2 15 9 16 15
13 8 -4z m-229 -4 c3 -5 -3 -11 -14 -14 -20 -5 -26 3 -13 16 9 10 21 9 27 -2z
m310 -16 c-5 -11 -2 -13 10 -9 9 3 16 3 16 -1 0 -25 -74 -54 -83 -32 -3 8 3
14 15 14 27 2 35 12 19 23 -11 6 -10 9 5 13 10 2 20 5 21 6 1 0 0 -6 -3 -14z
m-81 -45 c-3 -11 -9 -18 -13 -15 -5 3 -11 -1 -13 -7 -3 -7 -6 -3 -6 9 -1 19 9
30 31 32 3 1 4 -8 1 -19z m-193 -4 c0 -2 3 -11 6 -20 4 -10 1 -16 -7 -16 -7 0
-9 3 -6 7 4 3 -1 12 -11 19 -16 13 -16 13 1 14 9 0 17 -2 17 -4z m790 -26
c-11 -16 -26 -33 -33 -37 -12 -7 0 11 32 50 23 28 24 20 1 -13z m-660 -60 c0
-15 -38 -32 -45 -20 -3 5 1 10 9 10 9 0 16 5 16 10 0 6 5 10 10 10 6 0 10 -4
10 -10z m40 -12 c0 -6 -6 -5 -15 2 -8 7 -15 14 -15 16 0 2 7 1 15 -2 8 -4 15
-11 15 -16z"/>
<path d="M4557 2793 c-11 -11 -8 -20 7 -20 8 0 12 6 9 14 -6 15 -7 15 -16 6z"/>
<path d="M4520 2726 c0 -9 9 -14 20 -13 24 2 26 13 4 21 -22 8 -24 8 -24 -8z"/>
<path d="M4267 2687 c-5 -15 20 -41 28 -28 6 11 -4 41 -15 41 -4 0 -10 -6 -13
-13z"/>
</g>
</svg>
